:version 1.10
:name ASF
:units
  mass 1
  length 1
  angle deg
:documentation
  ASF file generated by Kaydara
:root
  axis xyz
  order  tx ty tz rx ry rz
  position 0 0 0
  orientation 0 0 0
:bonedata
  begin
    id 1
    name LeftUpLegDummy
    direction 1 -2.30186e-007 -8.31532e-007
    length 2.93387
    axis 0 0 0 xyz
  end
  begin
    id 2
    name LeftUpLeg
    direction -1.82929e-007 -1 -1.48925e-009
    length 17.3336
    axis -3.48766 0.00143442 -0.000521554 xyz
    dof rx ry rz
  end
  begin
    id 3
    name LeftLeg
    direction -1.82929e-007 -1 -5.23717e-011
    length 14.9995
    axis 3.68178 -0.00654042 -0.000282425 xyz
    dof rx ry rz
  end
  begin
    id 4
    name LeftFoot
    direction 8.31532e-007 -4.54534e-011 1
    length 6.74421
    axis 1.87234e-006 4.66016e-005 -5.96866e-006 xyz
    dof rx ry rz
  end
  begin
    id 5
    name LeftToes
    direction 0.00818058 -0.00485161 0.999955
    length 3.85048
    axis 1.06247e-005 4.65869e-005 -5.96999e-006 xyz
    dof rx ry rz
  end
  begin
    id 6
    name SpineDummy
    direction -5.8607e-008 0.943407 -0.331637
    length 5.93572
    axis 0 0 0 xyz
  end
  begin
    id 7
    name Spine
    direction -1.04988e-007 0.999988 0.00495137
    length 10.1015
    axis -0.001389 0.000121417 6.61666e-006 xyz
    dof rx ry rz
  end
  begin
    id 8
    name Spine1
    direction 0 0 0
    length 0
    axis -0.001389 0.00012144 6.56766e-006 xyz
    dof rx ry rz
  end
  begin
    id 9
    name RightShoulderDummy
    direction -0.98348 0.17941 -0.0240696
    length 3.59882
    axis -0.001389 0.00012144 6.56766e-006 xyz
  end
  begin
    id 10
    name RightShoulder
    direction -0.978693 0.204882 0.0135597
    length 2.70001
    axis 0.215806 0.000203631 -0.00679732 xyz
    dof rx ry rz
  end
  begin
    id 11
    name RightArm
    direction -1 3.85509e-006 8.31394e-007
    length 10.2459
    axis -23.2009 -0.134239 -0.964098 xyz
    dof rx ry rz
  end
  begin
    id 12
    name RightForeArm
    direction -1 3.85569e-006 8.3129e-007
    length 8.16799
    axis -9.92322 0.0658061 0.17887 xyz
    dof rx ry rz
  end
  begin
    id 13
    name RightHand
    direction -0.992843 -0.0414604 0.112003
    length 5.28593
    axis -0.00960638 0.00330669 -0.185225 xyz
    dof rx ry rz
  end
  begin
    id 14
    name LeftShoulder1Dummy
    direction 0.983523 0.179172 -0.0240748
    length 3.59866
    axis -0.001389 0.00012144 6.56766e-006 xyz
  end
  begin
    id 15
    name LeftShoulder1
    direction 0.978627 0.205195 0.0135605
    length 2.70019
    axis -0.001389 0.00012144 6.57583e-006 xyz
    dof rx ry rz
  end
  begin
    id 16
    name LeftArm
    direction 1 3.51895e-006 -8.60188e-007
    length 10.2459
    axis -23.1894 0.134785 0.967513 xyz
    dof rx ry rz
  end
  begin
    id 17
    name LeftForeArm
    direction 1 3.51921e-006 -7.32029e-007
    length 8.16799
    axis -9.91835 -0.0656957 -0.177789 xyz
    dof rx ry rz
  end
  begin
    id 18
    name LeftHand
    direction 0.992938 -0.0411636 0.11126
    length 5.32135
    axis -0.00960237 -0.00340661 0.185177 xyz
    dof rx ry rz
  end
  begin
    id 19
    name HEadDummy
    direction 1.01974e-006 0.999861 -0.016675
    length 2.99946
    axis -0.001389 0.00012144 6.56766e-006 xyz
  end
  begin
    id 20
    name HEad
    direction -0.0222689 0.980941 0.193023
    length 5.12695
    axis -0.001389 0.00012144 6.56766e-006 xyz
    dof rx ry rz
  end
  begin
    id 21
    name RightUpLegDummy
    direction -1 2.30186e-007 8.31532e-007
    length 2.93387
    axis 0 0 0 xyz
  end
  begin
    id 22
    name RightUpLeg
    direction -1.82966e-007 -1 1.56832e-007
    length 17.3336
    axis -3.4909 -0.000906625 0.00028951 xyz
    dof rx ry rz
  end
  begin
    id 23
    name RightLeg
    direction -1.82786e-007 -1 -1.80317e-007
    length 14.9995
    axis 3.68513 0.0193739 -0.131021 xyz
    dof rx ry rz
  end
  begin
    id 24
    name RightFoot
    direction 8.31721e-007 -4.63324e-011 1
    length 6.74421
    axis 4.81691e-005 -0.120479 -0.188785 xyz
    dof rx ry rz
  end
  begin
    id 25
    name RightToes
    direction 0.00124746 -0.014064 0.9999
    length 3.85082
    axis 0.000481921 0.542163 -0.142575 xyz
    dof rx ry rz
  end
:hierarchy
  begin
    root LeftUpLegDummy SpineDummy RightUpLegDummy
    LeftUpLegDummy LeftUpLeg
    LeftUpLeg LeftLeg
    LeftLeg LeftFoot
    LeftFoot LeftToes
    SpineDummy Spine
    Spine Spine1
    Spine1 RightShoulderDummy LeftShoulder1Dummy HEadDummy
    RightShoulderDummy RightShoulder
    RightShoulder RightArm
    RightArm RightForeArm
    RightForeArm RightHand
    LeftShoulder1Dummy LeftShoulder1
    LeftShoulder1 LeftArm
    LeftArm LeftForeArm
    LeftForeArm LeftHand
    HEadDummy HEad
    RightUpLegDummy RightUpLeg
    RightUpLeg RightLeg
    RightLeg RightFoot
    RightFoot RightToes
  end

:SAMPLES-PER-SECOND 30
:FULLY-SPECIFIED
:DEGREES
179
root  4.19256 34.3895 30.1321 6.17785 11.1121 -0.295711
LeftUpLeg  -11.1654 5.7871 -0.87181
LeftLeg  14.1071 -0.26975 -0.0512724
LeftFoot  -2.19952 -0.0121292 0.0532245
LeftToes  -10.5977 2.60077e-006 -1.42232e-007
Spine  1.76994 4.55166 -4.47294
Spine1  2.79798 9.43468 -8.71755
RightShoulder  0.0466649 3.90226 3.36436
RightArm  -12.3412 7.33454 66.0245
RightForeArm  83.9004 79.8884 88.2367
RightHand  2.27454 -12.6113 -19.9893
LeftShoulder1  0.0505256 1.00396 -9.63731
LeftArm  -28.4987 13.5672 -62.1777
LeftForeArm  32.9741 -14.5087 -2.60744
LeftHand  0.0958199 2.6122 3.82068
HEad  -11.4963 -28.2114 5.5352
RightUpLeg  -10.2633 -5.94765 -7.25514
RightLeg  12.9745 3.71845 0.609055
RightFoot  3.15354 0.00454306 0.30848
RightToes  -38.1341 -0.200701 -0.304032
180
root  4.20378 34.383 30.1347 6.1203 10.7912 -0.292578
LeftUpLeg  -11.1612 5.8423 -0.886736
LeftLeg  14.3147 -0.0492875 -0.0109192
LeftFoot  -2.36831 -0.0114721 0.045125
LeftToes  -10.525 2.60077e-006 -1.42232e-007
Spine  1.77207 4.50174 -4.37481
Spine1  2.80795 9.34629 -8.54288
RightShoulder  0.0485438 4.0208 4.07882
RightArm  -8.03484 4.15486 66.0661
RightForeArm  70.8005 79.5036 74.0315
RightHand  1.87038 -12.2728 -16.8879
LeftShoulder1  0.048542 1.13915 -9.78606
LeftArm  -28.3133 13.7824 -62.171
LeftForeArm  33.07 -14.2582 -2.56041
LeftHand  0.0974319 2.6505 3.8426
HEad  -11.2652 -27.4953 5.32674
RightUpLeg  -10.3182 -5.93754 -7.28715
RightLeg  13.0891 4.018 0.666209
RightFoot  3.09878 0.00346593 0.323423
RightToes  -38.1045 -0.200859 -0.304092
181
root  4.20859 34.3774 30.1342 6.07178 10.5453 -0.288596
LeftUpLeg  -11.1836 5.96674 -0.894634
LeftLeg  14.5202 0.0426892 0.00648242
LeftFoot  -2.50997 -0.011017 0.0401682
LeftToes  -10.4392 2.60077e-006 -1.42232e-007
Spine  1.75191 4.39369 -4.27826
Spine1  2.79378 9.12159 -8.35297
RightShoulder  0.0490757 4.03008 4.58666
RightArm  -4.75972 1.27947 66.4359
RightForeArm  54.4519 77.8111 55.466
RightHand  1.39885 -11.8814 -13.0055
LeftShoulder1  0.0469491 1.22682 -9.96099
LeftArm  -28.1124 13.9511 -62.0588
LeftForeArm  33.2124 -14.0153 -2.51488
LeftHand  0.0984096 2.68891 3.81623
HEad  -10.9911 -26.8519 5.14734
RightUpLeg  -10.3387 -5.73213 -7.30406
RightLeg  13.125 4.0321 0.67113
RightFoot  3.07464 0.00346505 0.321598
RightToes  -38.1036 -0.200994 -0.304126
182
root  4.20648 34.3709 30.1331 6.0354 10.3718 -0.268609
LeftUpLeg  -11.1789 6.01482 -0.911504
LeftLeg  14.6282 0.158932 0.0290354
LeftFoot  -2.59867 -0.010421 0.0330246
LeftToes  -10.4381 2.60077e-006 -1.42232e-007
Spine  1.71241 4.22749 -4.19017
Spine1  2.75956 8.76199 -8.15952
RightShoulder  0.048703 3.91154 4.91702
RightArm  -1.94273 -1.33512 67.1731
RightForeArm  40.2834 74.0638 38.4877
RightHand  0.990453 -11.0983 -9.79232
LeftShoulder1  0.0457185 1.22125 -10.1412
LeftArm  -27.9844 14.1219 -61.8676
LeftForeArm  33.1529 -13.8286 -2.48006
LeftHand  0.0987725 2.76397 3.76533
HEad  -10.5074 -26.2005 4.89976
RightUpLeg  -10.3573 -5.52722 -7.32669
RightLeg  13.1706 3.98742 0.666958
RightFoot  3.02685 0.00388999 0.313107
RightToes  -38.0881 -0.201106 -0.304135
183
root  4.19998 34.3638 30.1334 5.99862 10.2043 -0.253634
LeftUpLeg  -11.1951 6.03856 -0.910118
LeftLeg  14.7812 0.274064 0.052044
LeftFoot  -2.69405 -0.00981476 0.0257222
LeftToes  -10.4844 2.60077e-006 -1.42232e-007
Spine  1.67708 4.06125 -4.09817
Spine1  2.72844 8.40145 -7.95312
RightShoulder  0.047952 3.91702 5.51282
RightArm  -0.280079 -3.48779 67.9516
RightForeArm  32.876 68.6547 27.0059
RightHand  0.668514 -12.5549 -5.69867
LeftShoulder1  0.0448221 1.20128 -10.3945
LeftArm  -27.8301 14.1613 -61.6197
LeftForeArm  33.108 -13.6787 -2.45215
LeftHand  0.0998921 2.77666 3.75541
HEad  -9.88058 -25.6454 4.74963
RightUpLeg  -10.3989 -5.38453 -7.34191
RightLeg  13.2664 4.02122 0.679485
RightFoot  2.96196 0.00405965 0.308531
RightToes  -38.0956 -0.201194 -0.304115
184
root  4.191 34.3524 30.1368 5.94277 10.0476 -0.263002
LeftUpLeg  -11.323 6.18046 -0.879293
LeftLeg  15.2123 0.264667 0.0522196
LeftFoot  -2.89333 -0.00958076 0.0242061
LeftToes  -10.6159 2.60077e-006 -1.42232e-007
Spine  1.66087 3.91775 -3.98075
Spine1  2.71842 8.09442 -7.69899
RightShoulder  0.0473091 4.35228 6.58537
RightArm  1.51816 -5.93525 67.8046
RightForeArm  36.5343 63.5302 20.8526
RightHand  0.452539 -17.0435 -2.64849
LeftShoulder1  0.0442315 1.2266 -10.7275
LeftArm  -27.4779 14.001 -61.3794
LeftForeArm  33.0536 -13.542 -2.42675
LeftHand  0.102022 2.74784 3.82094
HEad  -9.3532 -25.1914 4.5844
RightUpLeg  -10.4338 -5.17684 -7.33407
RightLeg  13.3911 3.98303 0.681936
RightFoot  2.89173 0.00435279 0.301995
RightToes  -38.2656 -0.201257 -0.304066
185
root  4.17375 34.3419 30.1441 5.90728 9.86145 -0.270425
LeftUpLeg  -11.3327 6.1739 -0.839355
LeftLeg  15.362 0.445516 0.0903085
LeftFoot  -3.00638 -0.00868897 0.0124675
LeftToes  -10.6803 2.60077e-006 -1.42232e-007
Spine  1.62697 3.79832 -3.86624
Spine1  2.68711 7.8164 -7.42946
RightShoulder  0.0471351 4.56244 7.42848
RightArm  5.13512 -7.81202 68.084
RightForeArm  47.3794 56.6159 15.5602
RightHand  0.712879 -20.9813 -3.47742
LeftShoulder1  0.0439186 1.2343 -10.8654
LeftArm  -27.1212 13.7802 -61.3382
LeftForeArm  32.9495 -13.4966 -2.41837
LeftHand  0.100135 2.8483 3.65251
HEad  -9.00227 -24.8112 4.34379
RightUpLeg  -10.4885 -5.10084 -7.30823
RightLeg  13.5215 4.10542 0.712418
RightFoot  2.76805 0.00448719 0.297886
RightToes  -38.211 -0.201293 -0.303987
186
root  4.15512 34.3397 30.1523 5.86587 9.62652 -0.252155
LeftUpLeg  -11.287 6.19285 -0.820503
LeftLeg  15.4293 0.641063 0.131509
LeftFoot  -3.06128 -0.00762462 -0.00195335
LeftToes  -10.7287 2.60077e-006 -1.42232e-007
Spine  1.58396 3.69494 -3.77368
Spine1  2.66027 7.54718 -7.1857
RightShoulder  0.0476674 4.4394 7.62976
RightArm  6.41979 -8.36513 70.1839
RightForeArm  63.2029 45.2416 10.1984
RightHand  0.924467 -16.2618 -6.0915
LeftShoulder1  0.0438551 1.22278 -10.8891
LeftArm  -26.9228 13.5098 -61.3978
LeftForeArm  32.7464 -13.5538 -2.42916
LeftHand  0.10024 2.87713 3.63332
HEad  -8.71921 -24.4847 4.16228
RightUpLeg  -10.4685 -5.10594 -7.30027
RightLeg  13.4907 4.33854 0.750373
RightFoot  2.72452 0.00441769 0.29691
RightToes  -38.1661 -0.201301 -0.303877
187
root  4.13295 34.3411 30.1626 5.8229 9.45235 -0.255321
LeftUpLeg  -11.2593 6.24998 -0.770246
LeftLeg  15.5278 0.738834 0.153153
LeftFoot  -3.17991 -0.00683182 -0.0121559
LeftToes  -10.3695 2.60077e-006 -1.42232e-007
Spine  1.5463 3.58354 -3.65714
Spine1  2.63831 7.26517 -6.89832
RightShoulder  0.0491602 4.91477 7.41813
RightArm  1.89965 -9.09204 73.4075
RightForeArm  71.0272 33.6081 6.6495
RightHand  0.637726 -9.69422 -7.13483
LeftShoulder1  0.0440127 1.20969 -10.9258
LeftArm  -26.5191 13.2664 -61.5058
LeftForeArm  32.3635 -13.7965 -2.47465
LeftHand  0.100891 2.87741 3.67484
HEad  -8.53406 -24.1004 4.06262
RightUpLeg  -10.3976 -5.0645 -7.26403
RightLeg  13.3835 4.46743 0.764029
RightFoot  2.70629 0.00422566 0.297811
RightToes  -38.0594 -0.20128 -0.303735
188
root  4.11631 34.341 30.1978 5.82919 9.58654 -0.243791
LeftUpLeg  -11.2302 6.04286 -0.730187
LeftLeg  15.5524 0.804889 0.167365
LeftFoot  -3.15214 -0.00634258 -0.0176432
LeftToes  -10.68 2.60077e-006 -1.42232e-007
Spine  1.51592 3.42338 -3.52459
Spine1  2.61035 6.91532 -6.60446
RightShoulder  0.0539813 5.87715 7.8047
RightArm  -2.78594 -10.3299 75.2126
RightForeArm  61.0266 24.9728 4.65657
RightHand  0.497636 -9.74704 -5.45771
LeftShoulder1  0.0443632 1.16532 -11.0392
LeftArm  -26.0522 12.9475 -61.5534
LeftForeArm  32.2526 -14.0223 -2.51688
LeftHand  0.101071 2.74511 3.6455
HEad  -8.45613 -23.8438 3.91165
RightUpLeg  -10.2724 -5.4399 -7.23201
RightLeg  13.2944 4.69226 0.79488
RightFoot  2.65001 0.00387159 0.301207
RightToes  -38.0018 -0.20123 -0.303559
189
root  4.09788 34.3209 30.2411 5.77725 9.80848 -0.274553
LeftUpLeg  -11.2794 5.77049 -0.637741
LeftLeg  15.8779 0.854325 0.182789
LeftFoot  -3.36288 -0.00548366 -0.0288787
LeftToes  -10.7897 2.60077e-006 -1.42232e-007
Spine  1.55869 3.33024 -3.31747
Spine1  2.66058 6.75219 -6.22859
RightShoulder  0.0858939 6.86097 7.70647
RightArm  -15.4384 -11.584 77.3151
RightForeArm  46.1673 18.1228 3.28506
RightHand  0.170451 -8.7081 -1.86699
LeftShoulder1  0.0448785 1.31292 -11.1889
LeftArm  -25.3067 12.3468 -61.7641
LeftForeArm  31.8436 -14.2926 -2.56773
LeftHand  0.0969773 2.87296 3.44112
HEad  -8.42087 -23.5413 3.71293
RightUpLeg  -10.2778 -5.7132 -7.17011
RightLeg  13.6724 4.7481 0.836456
RightFoot  2.33547 0.00506948 0.280497
RightToes  -37.9044 -0.201148 -0.302981
190
root  4.05077 34.3126 30.2492 5.87642 9.50811 -0.22365
LeftUpLeg  -11.4249 6.16743 -0.625098
LeftLeg  16.0427 0.762591 0.165241
LeftFoot  -3.43981 -0.00521839 -0.0308925
LeftToes  -10.8254 2.60077e-006 -1.42232e-007
Spine  1.50885 3.32033 -3.1959
Spine1  2.58216 6.67408 -5.95141
RightShoulder  0.0974963 7.49939 7.92755
RightArm  -24.3021 -14.1372 77.7248
RightForeArm  38.8942 16.1062 2.90551
RightHand  0.0541757 -11.2277 -0.181041
LeftShoulder1  0.0455302 1.34567 -11.2471
LeftArm  -24.8441 11.9219 -61.9658
LeftForeArm  31.4993 -14.5902 -2.62378
LeftHand  0.095606 2.88025 3.44768
HEad  -8.48752 -23.2936 3.73983
RightUpLeg  -10.5401 -5.05165 -7.14388
RightLeg  13.9063 4.38761 0.791527
RightFoot  2.18873 0.00705574 0.24754
RightToes  -37.9856 -0.201034 -0.30239
191
root  4.02028 34.3138 30.267 5.9171 9.65538 -0.193748
LeftUpLeg  -11.4884 6.14711 -0.591635
LeftLeg  16.1152 0.629771 0.136963
LeftFoot  -3.41987 -0.00538421 -0.0262115
LeftToes  -10.9705 2.60077e-006 -1.42232e-007
Spine  1.48045 3.11004 -3.0604
Spine1  2.5735 6.18728 -5.63627
RightShoulder  0.0973848 7.6576 8.07236
RightArm  -32.8223 -16.4245 78.2468
RightForeArm  32.8691 14.5595 2.61824
RightHand  0.351326 -10.7809 -3.34995
LeftShoulder1  0.04629 1.43166 -11.4017
LeftArm  -24.4182 11.5835 -62.0528
LeftForeArm  31.1129 -14.9812 -2.69762
LeftHand  0.0920908 2.86131 3.30809
HEad  -8.62836 -23.111 3.90999
RightUpLeg  -10.5223 -5.08383 -7.11509
RightLeg  13.9159 4.2748 0.771965
RightFoot  2.09805 0.00816451 0.228202
RightToes  -37.9026 -0.200887 -0.301808
192
root  3.98623 34.3224 30.2925 5.8371 9.85306 -0.220816
LeftUpLeg  -11.3339 6.09476 -0.475646
LeftLeg  15.9755 0.47571 0.101799
LeftFoot  -3.3364 -0.00559753 -0.020798
LeftToes  -11.1251 2.60077e-006 -1.42232e-007
Spine  1.48585 2.81985 -2.89879
Spine1  2.63478 5.55499 -5.27558
RightShoulder  0.0888112 7.82997 8.23011
RightArm  -38.2659 -18.5685 78.1538
RightForeArm  28.8264 14.7023 2.64761
RightHand  0.635136 -10.8548 -6.30361
LeftShoulder1  0.0471298 1.4773 -11.5643
LeftArm  -24.1541 11.424 -62.1558
LeftForeArm  30.8457 -15.3635 -2.77001
LeftHand  0.0871671 2.74751 3.25544
HEad  -8.46765 -22.8601 4.04294
RightUpLeg  -10.2849 -4.82776 -7.02493
RightLeg  13.7299 3.83271 0.679525
RightFoot  2.11832 0.00946147 0.205946
RightToes  -37.9471 -0.200706 -0.301233
